<svg width="12" height="12" viewBox="0 0 12 12" fill="none" xmlns="http://www.w3.org/2000/svg">
<path d="M0.577556 11.5791C0.42133 11.4229 0.333568 11.2109 0.333568 10.99C0.333568 10.769 0.42133 10.5571 0.577556 10.4008L4.98839 5.98996L0.577557 1.57913C0.425758 1.42196 0.341763 1.21146 0.343661 0.992964C0.34556 0.774466 0.433202 0.565455 0.587709 0.410949C0.742215 0.256442 0.951226 0.1688 1.16972 0.166902C1.38822 0.165003 1.59872 0.248999 1.75589 0.400797L6.75589 5.4008C6.91212 5.55707 6.99988 5.76899 6.99988 5.98996C6.99988 6.21093 6.91212 6.42286 6.75589 6.57913L1.75589 11.5791C1.59962 11.7354 1.38769 11.8231 1.16672 11.8231C0.945753 11.8231 0.733829 11.7354 0.577556 11.5791ZM5.57756 11.5791C5.42133 11.4229 5.33357 11.2109 5.33357 10.99C5.33357 10.769 5.42133 10.5571 5.57756 10.4008L9.98839 5.98996L5.57756 1.57913C5.42576 1.42196 5.34176 1.21146 5.34366 0.992964C5.34556 0.774467 5.4332 0.565456 5.58771 0.410949C5.74222 0.256442 5.95123 0.168801 6.16972 0.166902C6.38822 0.165003 6.59872 0.248999 6.75589 0.400797L11.7559 5.4008C11.9121 5.55707 11.9999 5.76899 11.9999 5.98996C11.9999 6.21094 11.9121 6.42286 11.7559 6.57913L6.75589 11.5791C6.59962 11.7354 6.38769 11.8231 6.16672 11.8231C5.94575 11.8231 5.73383 11.7354 5.57756 11.5791Z" fill="white"/>
</svg>
