<svg width="12" height="12" viewBox="0 0 12 12" fill="none" xmlns="http://www.w3.org/2000/svg">
<path d="M11.7558 0.410828C11.912 0.567102 11.9998 0.779025 11.9998 0.999995C11.9998 1.22097 11.912 1.43289 11.7558 1.58916L7.34498 6L11.7558 10.4108C11.9076 10.568 11.9916 10.7785 11.9897 10.997C11.9878 11.2155 11.9002 11.4245 11.7457 11.579C11.5912 11.7335 11.3821 11.8212 11.1637 11.8231C10.9452 11.825 10.7347 11.741 10.5775 11.5892L5.57748 6.58916C5.42126 6.43289 5.3335 6.22097 5.3335 6C5.3335 5.77903 5.42126 5.5671 5.57748 5.41083L10.5775 0.410828C10.7338 0.254603 10.9457 0.16684 11.1667 0.16684C11.3876 0.16684 11.5995 0.254603 11.7558 0.410828ZM6.75582 0.410828C6.91204 0.567102 6.99981 0.779025 6.99981 0.999995C6.99981 1.22097 6.91204 1.43289 6.75582 1.58916L2.34498 6L6.75582 10.4108C6.90762 10.568 6.99161 10.7785 6.98971 10.997C6.98781 11.2155 6.90017 11.4245 6.74567 11.579C6.59116 11.7335 6.38215 11.8212 6.16365 11.8231C5.94515 11.825 5.73465 11.741 5.57748 11.5892L0.577485 6.58916C0.421259 6.43289 0.333496 6.22097 0.333496 6C0.333496 5.77903 0.421259 5.5671 0.577485 5.41083L5.57748 0.410828C5.73376 0.254603 5.94568 0.16684 6.16665 0.16684C6.38762 0.16684 6.59954 0.254603 6.75582 0.410828Z" fill="white"/>
</svg>
